<mxfile host="app.diagrams.net" modified="2021-11-04T06:09:38.659Z" agent="5.0 (Macintosh; Intel Mac OS X 10_15_7) AppleWebKit/537.36 (KHTML, like Gecko) Chrome/93.0.4577.63 Safari/537.36" etag="zdCH0aVNrud_4OXWEG4R" version="15.6.8" type="github">
  <diagram id="P7Q3f-0geETipVWvO-Z_" name="Page-1">
    <mxGraphModel dx="3285" dy="613" grid="1" gridSize="10" guides="1" tooltips="1" connect="1" arrows="1" fold="1" page="1" pageScale="1" pageWidth="2339" pageHeight="3300" math="0" shadow="0">
      <root>
        <mxCell id="0" />
        <mxCell id="1" parent="0" />
        <mxCell id="AvgKZw_DgmgUPwYcFaAc-2" value="" style="shape=flexArrow;endArrow=classic;html=1;endWidth=40;endSize=13.1;width=29;" parent="1" source="AvgKZw_DgmgUPwYcFaAc-21" edge="1">
          <mxGeometry width="50" height="50" relative="1" as="geometry">
            <mxPoint x="240" y="279.47" as="sourcePoint" />
            <mxPoint x="1250" y="272" as="targetPoint" />
            <Array as="points" />
          </mxGeometry>
        </mxCell>
        <mxCell id="AvgKZw_DgmgUPwYcFaAc-13" style="edgeStyle=orthogonalEdgeStyle;rounded=0;orthogonalLoop=1;jettySize=auto;html=1;entryX=0.989;entryY=0.377;entryDx=0;entryDy=0;entryPerimeter=0;" parent="1" source="AvgKZw_DgmgUPwYcFaAc-6" target="AvgKZw_DgmgUPwYcFaAc-10" edge="1">
          <mxGeometry relative="1" as="geometry" />
        </mxCell>
        <mxCell id="AvgKZw_DgmgUPwYcFaAc-6" value="" style="shape=cylinder3;whiteSpace=wrap;html=1;boundedLbl=1;backgroundOutline=1;size=15;direction=south;" parent="1" vertex="1">
          <mxGeometry x="380" y="225" width="160" height="100" as="geometry" />
        </mxCell>
        <mxCell id="AvgKZw_DgmgUPwYcFaAc-8" value="" style="shape=flexArrow;endArrow=classic;html=1;endWidth=21;endSize=10.51;width=30;" parent="1" target="AvgKZw_DgmgUPwYcFaAc-6" edge="1">
          <mxGeometry width="50" height="50" relative="1" as="geometry">
            <mxPoint x="190" y="277" as="sourcePoint" />
            <mxPoint x="950" y="279" as="targetPoint" />
          </mxGeometry>
        </mxCell>
        <mxCell id="AvgKZw_DgmgUPwYcFaAc-9" value="doc exist ?" style="text;html=1;strokeColor=none;fillColor=none;align=center;verticalAlign=middle;whiteSpace=wrap;rounded=0;" parent="1" vertex="1">
          <mxGeometry x="400" y="240" width="100" height="50" as="geometry" />
        </mxCell>
        <mxCell id="AvgKZw_DgmgUPwYcFaAc-15" style="edgeStyle=orthogonalEdgeStyle;rounded=0;orthogonalLoop=1;jettySize=auto;html=1;entryX=0;entryY=0.5;entryDx=0;entryDy=0;entryPerimeter=0;exitX=0;exitY=0.5;exitDx=0;exitDy=0;exitPerimeter=0;" parent="1" source="AvgKZw_DgmgUPwYcFaAc-10" target="AvgKZw_DgmgUPwYcFaAc-11" edge="1">
          <mxGeometry relative="1" as="geometry">
            <mxPoint x="280" y="650" as="sourcePoint" />
          </mxGeometry>
        </mxCell>
        <mxCell id="AvgKZw_DgmgUPwYcFaAc-19" style="edgeStyle=orthogonalEdgeStyle;rounded=0;orthogonalLoop=1;jettySize=auto;html=1;exitX=1;exitY=0;exitDx=0;exitDy=40;exitPerimeter=0;entryX=1.036;entryY=0.658;entryDx=0;entryDy=0;entryPerimeter=0;" parent="1" source="AvgKZw_DgmgUPwYcFaAc-10" target="AvgKZw_DgmgUPwYcFaAc-6" edge="1">
          <mxGeometry relative="1" as="geometry" />
        </mxCell>
        <mxCell id="AvgKZw_DgmgUPwYcFaAc-10" value="redis" style="shape=cylinder3;whiteSpace=wrap;html=1;boundedLbl=1;backgroundOutline=1;size=15;" parent="1" vertex="1">
          <mxGeometry x="290" y="550" width="90" height="130" as="geometry" />
        </mxCell>
        <mxCell id="AvgKZw_DgmgUPwYcFaAc-17" style="edgeStyle=orthogonalEdgeStyle;rounded=0;orthogonalLoop=1;jettySize=auto;html=1;exitX=1;exitY=0;exitDx=0;exitDy=40;exitPerimeter=0;" parent="1" source="AvgKZw_DgmgUPwYcFaAc-11" edge="1">
          <mxGeometry relative="1" as="geometry">
            <mxPoint x="380" y="635" as="targetPoint" />
            <Array as="points">
              <mxPoint x="470" y="820" />
              <mxPoint x="470" y="635" />
            </Array>
          </mxGeometry>
        </mxCell>
        <mxCell id="AvgKZw_DgmgUPwYcFaAc-11" value="ES" style="shape=cylinder3;whiteSpace=wrap;html=1;boundedLbl=1;backgroundOutline=1;size=15;" parent="1" vertex="1">
          <mxGeometry x="290" y="780" width="90" height="130" as="geometry" />
        </mxCell>
        <mxCell id="AvgKZw_DgmgUPwYcFaAc-14" value="1.check cache" style="text;html=1;align=center;verticalAlign=middle;resizable=0;points=[];autosize=1;" parent="1" vertex="1">
          <mxGeometry x="470" y="520" width="90" height="20" as="geometry" />
        </mxCell>
        <mxCell id="AvgKZw_DgmgUPwYcFaAc-16" value="2.if cache not check db&amp;nbsp;" style="text;html=1;align=center;verticalAlign=middle;resizable=0;points=[];autosize=1;" parent="1" vertex="1">
          <mxGeometry x="120" y="750" width="140" height="20" as="geometry" />
        </mxCell>
        <mxCell id="AvgKZw_DgmgUPwYcFaAc-18" value="3.update status in cache with expire time" style="text;html=1;align=center;verticalAlign=middle;resizable=0;points=[];autosize=1;" parent="1" vertex="1">
          <mxGeometry x="470" y="720" width="230" height="20" as="geometry" />
        </mxCell>
        <mxCell id="AvgKZw_DgmgUPwYcFaAc-20" value="4.return status" style="text;html=1;align=center;verticalAlign=middle;resizable=0;points=[];autosize=1;" parent="1" vertex="1">
          <mxGeometry x="345" y="510" width="90" height="20" as="geometry" />
        </mxCell>
        <mxCell id="AvgKZw_DgmgUPwYcFaAc-25" style="edgeStyle=orthogonalEdgeStyle;rounded=0;orthogonalLoop=1;jettySize=auto;html=1;exitX=0;exitY=0.5;exitDx=0;exitDy=0;entryX=0;entryY=0.5;entryDx=0;entryDy=0;entryPerimeter=0;" parent="1" source="AvgKZw_DgmgUPwYcFaAc-30" target="AvgKZw_DgmgUPwYcFaAc-24" edge="1">
          <mxGeometry relative="1" as="geometry">
            <mxPoint x="730" y="850" as="targetPoint" />
            <Array as="points">
              <mxPoint x="780" y="420" />
              <mxPoint x="688" y="420" />
              <mxPoint x="688" y="855" />
            </Array>
          </mxGeometry>
        </mxCell>
        <mxCell id="AvgKZw_DgmgUPwYcFaAc-37" style="edgeStyle=orthogonalEdgeStyle;rounded=0;orthogonalLoop=1;jettySize=auto;html=1;exitX=1;exitY=0;exitDx=0;exitDy=47.5;exitPerimeter=0;entryX=0.5;entryY=0;entryDx=0;entryDy=0;" parent="1" source="AvgKZw_DgmgUPwYcFaAc-21" target="AvgKZw_DgmgUPwYcFaAc-36" edge="1">
          <mxGeometry relative="1" as="geometry" />
        </mxCell>
        <mxCell id="AvgKZw_DgmgUPwYcFaAc-21" value="not exist:create doc&lt;br&gt;exist:append status in doc&lt;br&gt;" style="shape=cylinder3;whiteSpace=wrap;html=1;boundedLbl=1;backgroundOutline=1;size=15;direction=south;" parent="1" vertex="1">
          <mxGeometry x="740" y="225" width="160" height="100" as="geometry" />
        </mxCell>
        <mxCell id="AvgKZw_DgmgUPwYcFaAc-22" value="" style="shape=flexArrow;endArrow=classic;html=1;endWidth=40;endSize=13.1;width=29;" parent="1" source="AvgKZw_DgmgUPwYcFaAc-6" target="AvgKZw_DgmgUPwYcFaAc-21" edge="1">
          <mxGeometry width="50" height="50" relative="1" as="geometry">
            <mxPoint x="570" y="276" as="sourcePoint" />
            <mxPoint x="950" y="280" as="targetPoint" />
          </mxGeometry>
        </mxCell>
        <mxCell id="AvgKZw_DgmgUPwYcFaAc-43" style="edgeStyle=orthogonalEdgeStyle;rounded=0;orthogonalLoop=1;jettySize=auto;html=1;exitX=1;exitY=1;exitDx=0;exitDy=-15;exitPerimeter=0;entryX=0.855;entryY=0;entryDx=0;entryDy=4.35;entryPerimeter=0;" parent="1" source="AvgKZw_DgmgUPwYcFaAc-23" target="AvgKZw_DgmgUPwYcFaAc-24" edge="1">
          <mxGeometry relative="1" as="geometry" />
        </mxCell>
        <mxCell id="AvgKZw_DgmgUPwYcFaAc-23" value="redis" style="shape=cylinder3;whiteSpace=wrap;html=1;boundedLbl=1;backgroundOutline=1;size=15;" parent="1" vertex="1">
          <mxGeometry x="840" y="560" width="90" height="130" as="geometry" />
        </mxCell>
        <mxCell id="AvgKZw_DgmgUPwYcFaAc-24" value="ES" style="shape=cylinder3;whiteSpace=wrap;html=1;boundedLbl=1;backgroundOutline=1;size=15;" parent="1" vertex="1">
          <mxGeometry x="910" y="790" width="90" height="130" as="geometry" />
        </mxCell>
        <mxCell id="AvgKZw_DgmgUPwYcFaAc-26" value="1.create doc to es" style="text;html=1;align=center;verticalAlign=middle;resizable=0;points=[];autosize=1;" parent="1" vertex="1">
          <mxGeometry x="690" y="430" width="110" height="20" as="geometry" />
        </mxCell>
        <mxCell id="AvgKZw_DgmgUPwYcFaAc-32" style="edgeStyle=orthogonalEdgeStyle;rounded=0;orthogonalLoop=1;jettySize=auto;html=1;exitX=1;exitY=0.75;exitDx=0;exitDy=0;entryX=0.145;entryY=0;entryDx=0;entryDy=4.35;entryPerimeter=0;" parent="1" source="AvgKZw_DgmgUPwYcFaAc-30" target="AvgKZw_DgmgUPwYcFaAc-23" edge="1">
          <mxGeometry relative="1" as="geometry">
            <mxPoint x="806" y="620" as="targetPoint" />
            <Array as="points">
              <mxPoint x="850" y="500" />
              <mxPoint x="853" y="500" />
            </Array>
          </mxGeometry>
        </mxCell>
        <mxCell id="AvgKZw_DgmgUPwYcFaAc-34" style="edgeStyle=orthogonalEdgeStyle;rounded=0;orthogonalLoop=1;jettySize=auto;html=1;exitX=0;exitY=0.5;exitDx=0;exitDy=0;entryX=1.018;entryY=0.242;entryDx=0;entryDy=0;entryPerimeter=0;" parent="1" source="AvgKZw_DgmgUPwYcFaAc-30" target="AvgKZw_DgmgUPwYcFaAc-6" edge="1">
          <mxGeometry relative="1" as="geometry" />
        </mxCell>
        <mxCell id="AvgKZw_DgmgUPwYcFaAc-30" value="&amp;nbsp;not exist" style="rounded=1;whiteSpace=wrap;html=1;" parent="1" vertex="1">
          <mxGeometry x="780" y="390" width="70" height="40" as="geometry" />
        </mxCell>
        <mxCell id="AvgKZw_DgmgUPwYcFaAc-31" style="edgeStyle=orthogonalEdgeStyle;rounded=0;orthogonalLoop=1;jettySize=auto;html=1;exitX=1;exitY=0;exitDx=0;exitDy=112.5;exitPerimeter=0;entryX=1;entryY=0.5;entryDx=0;entryDy=0;entryPerimeter=0;" parent="1" source="AvgKZw_DgmgUPwYcFaAc-21" target="AvgKZw_DgmgUPwYcFaAc-30" edge="1">
          <mxGeometry relative="1" as="geometry">
            <mxPoint x="697.5" y="325" as="sourcePoint" />
            <mxPoint x="720" y="715" as="targetPoint" />
            <Array as="points">
              <mxPoint x="788" y="370" />
              <mxPoint x="870" y="370" />
              <mxPoint x="870" y="410" />
            </Array>
          </mxGeometry>
        </mxCell>
        <mxCell id="AvgKZw_DgmgUPwYcFaAc-33" value="2.cache status" style="text;html=1;align=center;verticalAlign=middle;resizable=0;points=[];autosize=1;" parent="1" vertex="1">
          <mxGeometry x="760" y="490" width="90" height="20" as="geometry" />
        </mxCell>
        <mxCell id="AvgKZw_DgmgUPwYcFaAc-35" value="3.retry doc exist over es flush duratin" style="text;html=1;align=center;verticalAlign=middle;resizable=0;points=[];autosize=1;" parent="1" vertex="1">
          <mxGeometry x="540" y="380" width="210" height="20" as="geometry" />
        </mxCell>
        <mxCell id="AvgKZw_DgmgUPwYcFaAc-40" style="edgeStyle=orthogonalEdgeStyle;rounded=0;orthogonalLoop=1;jettySize=auto;html=1;exitX=0.5;exitY=1;exitDx=0;exitDy=0;entryX=1;entryY=0.623;entryDx=0;entryDy=0;entryPerimeter=0;" parent="1" source="AvgKZw_DgmgUPwYcFaAc-36" target="AvgKZw_DgmgUPwYcFaAc-23" edge="1">
          <mxGeometry relative="1" as="geometry">
            <Array as="points">
              <mxPoint x="950" y="430" />
              <mxPoint x="950" y="641" />
            </Array>
          </mxGeometry>
        </mxCell>
        <mxCell id="AvgKZw_DgmgUPwYcFaAc-47" style="edgeStyle=orthogonalEdgeStyle;rounded=0;orthogonalLoop=1;jettySize=auto;html=1;exitX=1;exitY=0.5;exitDx=0;exitDy=0;entryX=1;entryY=0;entryDx=0;entryDy=40;entryPerimeter=0;" parent="1" source="AvgKZw_DgmgUPwYcFaAc-36" target="AvgKZw_DgmgUPwYcFaAc-24" edge="1">
          <mxGeometry relative="1" as="geometry" />
        </mxCell>
        <mxCell id="AvgKZw_DgmgUPwYcFaAc-36" value="exist" style="rounded=1;whiteSpace=wrap;html=1;" parent="1" vertex="1">
          <mxGeometry x="900" y="390" width="70" height="40" as="geometry" />
        </mxCell>
        <mxCell id="AvgKZw_DgmgUPwYcFaAc-39" value="1update status in doc(lock doc in cache)" style="text;html=1;align=center;verticalAlign=middle;resizable=0;points=[];autosize=1;" parent="1" vertex="1">
          <mxGeometry x="950" y="410" width="230" height="20" as="geometry" />
        </mxCell>
        <mxCell id="AvgKZw_DgmgUPwYcFaAc-41" value="2.get cache status" style="text;html=1;align=center;verticalAlign=middle;resizable=0;points=[];autosize=1;" parent="1" vertex="1">
          <mxGeometry x="860" y="480" width="110" height="20" as="geometry" />
        </mxCell>
        <mxCell id="AvgKZw_DgmgUPwYcFaAc-44" value="3.push cached status in db(lock doc in cache)" style="text;html=1;align=center;verticalAlign=middle;resizable=0;points=[];autosize=1;" parent="1" vertex="1">
          <mxGeometry x="785" y="710" width="260" height="20" as="geometry" />
        </mxCell>
        <mxCell id="AvgKZw_DgmgUPwYcFaAc-48" value="" style="endArrow=none;dashed=1;html=1;dashPattern=1 3;strokeWidth=2;" parent="1" edge="1">
          <mxGeometry width="50" height="50" relative="1" as="geometry">
            <mxPoint x="40" y="460" as="sourcePoint" />
            <mxPoint x="1470" y="460" as="targetPoint" />
          </mxGeometry>
        </mxCell>
        <mxCell id="AvgKZw_DgmgUPwYcFaAc-51" value="" style="endArrow=none;dashed=1;html=1;dashPattern=1 3;strokeWidth=2;" parent="1" edge="1">
          <mxGeometry width="50" height="50" relative="1" as="geometry">
            <mxPoint x="-30" y="770" as="sourcePoint" />
            <mxPoint x="1580" y="770" as="targetPoint" />
          </mxGeometry>
        </mxCell>
        <mxCell id="AvgKZw_DgmgUPwYcFaAc-52" value="&lt;font style=&quot;font-size: 18px&quot;&gt;&lt;b&gt;NEW PUSHTRACK&lt;/b&gt;&lt;/font&gt;" style="text;html=1;align=center;verticalAlign=middle;resizable=0;points=[];autosize=1;" parent="1" vertex="1">
          <mxGeometry x="30" y="210" width="180" height="20" as="geometry" />
        </mxCell>
        <mxCell id="AvgKZw_DgmgUPwYcFaAc-53" value="&lt;font style=&quot;font-size: 24px&quot;&gt;DB online&lt;/font&gt;" style="text;html=1;align=center;verticalAlign=middle;resizable=0;points=[];autosize=1;" parent="1" vertex="1">
          <mxGeometry x="-10" y="470" width="120" height="20" as="geometry" />
        </mxCell>
        <mxCell id="AvgKZw_DgmgUPwYcFaAc-54" value="&lt;font style=&quot;font-size: 24px&quot;&gt;DB nearline&lt;/font&gt;" style="text;html=1;align=center;verticalAlign=middle;resizable=0;points=[];autosize=1;" parent="1" vertex="1">
          <mxGeometry y="790" width="140" height="20" as="geometry" />
        </mxCell>
        <mxCell id="AvgKZw_DgmgUPwYcFaAc-55" value="" style="endArrow=none;dashed=1;html=1;dashPattern=1 3;strokeWidth=2;" parent="1" edge="1">
          <mxGeometry width="50" height="50" relative="1" as="geometry">
            <mxPoint x="40" y="1060" as="sourcePoint" />
            <mxPoint x="1580" y="1060" as="targetPoint" />
          </mxGeometry>
        </mxCell>
        <mxCell id="AvgKZw_DgmgUPwYcFaAc-56" value="&lt;b&gt;&lt;font style=&quot;font-size: 18px&quot;&gt;OLD PUSHTRACK&lt;/font&gt;&lt;/b&gt;" style="text;html=1;align=center;verticalAlign=middle;resizable=0;points=[];autosize=1;" parent="1" vertex="1">
          <mxGeometry x="5" y="1080" width="170" height="20" as="geometry" />
        </mxCell>
        <mxCell id="AvgKZw_DgmgUPwYcFaAc-57" value="" style="shape=flexArrow;endArrow=classic;html=1;endWidth=42;endSize=10.33;width=26;" parent="1" source="AvgKZw_DgmgUPwYcFaAc-62" edge="1">
          <mxGeometry width="50" height="50" relative="1" as="geometry">
            <mxPoint x="180" y="1180" as="sourcePoint" />
            <mxPoint x="1140" y="1170" as="targetPoint" />
          </mxGeometry>
        </mxCell>
        <mxCell id="AvgKZw_DgmgUPwYcFaAc-60" style="edgeStyle=orthogonalEdgeStyle;rounded=0;orthogonalLoop=1;jettySize=auto;html=1;exitX=0;exitY=0;exitDx=0;exitDy=86.25;exitPerimeter=0;" parent="1" source="AvgKZw_DgmgUPwYcFaAc-59" target="AvgKZw_DgmgUPwYcFaAc-11" edge="1">
          <mxGeometry relative="1" as="geometry" />
        </mxCell>
        <mxCell id="AvgKZw_DgmgUPwYcFaAc-61" value="check and flush" style="text;html=1;align=center;verticalAlign=middle;resizable=0;points=[];autosize=1;" parent="1" vertex="1">
          <mxGeometry x="380" y="1070" width="100" height="20" as="geometry" />
        </mxCell>
        <mxCell id="AvgKZw_DgmgUPwYcFaAc-62" value="update" style="shape=cylinder3;whiteSpace=wrap;html=1;boundedLbl=1;backgroundOutline=1;size=15;direction=south;" parent="1" vertex="1">
          <mxGeometry x="830" y="1140" width="125" height="70" as="geometry" />
        </mxCell>
        <mxCell id="AvgKZw_DgmgUPwYcFaAc-63" value="" style="shape=flexArrow;endArrow=classic;html=1;endWidth=42;endSize=10.33;width=26;" parent="1" source="AvgKZw_DgmgUPwYcFaAc-59" target="AvgKZw_DgmgUPwYcFaAc-62" edge="1">
          <mxGeometry width="50" height="50" relative="1" as="geometry">
            <mxPoint x="180" y="1180" as="sourcePoint" />
            <mxPoint x="1110" y="1180" as="targetPoint" />
          </mxGeometry>
        </mxCell>
        <mxCell id="AvgKZw_DgmgUPwYcFaAc-68" style="edgeStyle=orthogonalEdgeStyle;rounded=0;orthogonalLoop=1;jettySize=auto;html=1;exitX=0.5;exitY=0;exitDx=0;exitDy=0;entryX=0;entryY=0;entryDx=0;entryDy=90;entryPerimeter=0;" parent="1" source="AvgKZw_DgmgUPwYcFaAc-64" target="AvgKZw_DgmgUPwYcFaAc-24" edge="1">
          <mxGeometry relative="1" as="geometry" />
        </mxCell>
        <mxCell id="AvgKZw_DgmgUPwYcFaAc-64" value="not exist" style="rounded=1;whiteSpace=wrap;html=1;" parent="1" vertex="1">
          <mxGeometry x="830" y="1090" width="70" height="40" as="geometry" />
        </mxCell>
        <mxCell id="AvgKZw_DgmgUPwYcFaAc-70" style="edgeStyle=orthogonalEdgeStyle;rounded=0;orthogonalLoop=1;jettySize=auto;html=1;exitX=0.5;exitY=0;exitDx=0;exitDy=0;entryX=0.5;entryY=1;entryDx=0;entryDy=0;entryPerimeter=0;" parent="1" source="AvgKZw_DgmgUPwYcFaAc-65" target="AvgKZw_DgmgUPwYcFaAc-24" edge="1">
          <mxGeometry relative="1" as="geometry">
            <mxPoint x="955" y="930" as="targetPoint" />
          </mxGeometry>
        </mxCell>
        <mxCell id="AvgKZw_DgmgUPwYcFaAc-65" value="exist" style="rounded=1;whiteSpace=wrap;html=1;" parent="1" vertex="1">
          <mxGeometry x="920" y="1090" width="70" height="40" as="geometry" />
        </mxCell>
        <mxCell id="AvgKZw_DgmgUPwYcFaAc-59" value="docexistt" style="shape=cylinder3;whiteSpace=wrap;html=1;boundedLbl=1;backgroundOutline=1;size=15;direction=south;" parent="1" vertex="1">
          <mxGeometry x="355" y="1140" width="125" height="70" as="geometry" />
        </mxCell>
        <mxCell id="AvgKZw_DgmgUPwYcFaAc-66" value="" style="shape=flexArrow;endArrow=classic;html=1;endWidth=42;endSize=10.33;width=26;" parent="1" target="AvgKZw_DgmgUPwYcFaAc-59" edge="1">
          <mxGeometry width="50" height="50" relative="1" as="geometry">
            <mxPoint x="180" y="1176" as="sourcePoint" />
            <mxPoint x="830" y="1175.438596491228" as="targetPoint" />
          </mxGeometry>
        </mxCell>
        <mxCell id="AvgKZw_DgmgUPwYcFaAc-69" value="create and flush" style="text;html=1;align=center;verticalAlign=middle;resizable=0;points=[];autosize=1;" parent="1" vertex="1">
          <mxGeometry x="740" y="980" width="100" height="20" as="geometry" />
        </mxCell>
        <mxCell id="AvgKZw_DgmgUPwYcFaAc-71" value="updat status and flush" style="text;html=1;align=center;verticalAlign=middle;resizable=0;points=[];autosize=1;" parent="1" vertex="1">
          <mxGeometry x="970" y="980" width="130" height="20" as="geometry" />
        </mxCell>
      </root>
    </mxGraphModel>
  </diagram>
</mxfile>
